# xmcd
#
# Track frame offsets: 
#        150
#        12644
#        23924
#        40054
#        57517
#        76772
#        91212
#        102552
#        118557
#        126897
#        144297
#        160024
#        175587
#        193317
#        207804
#        226434
#        241459
#
# Disc length: 3409 seconds
#
# Revision: 4
# Processed by: cddbd v1.4PL0 Copyright (c) Steve Scherf et al.
# Submitted via: ExactAudioCopy v0.90b4
#
DISCID=df0d4f11
DTITLE=WAITS Tom - Frank's Wild Years
DYEAR=1987
DGENRE=Soul
TTITLE0=Hang On St. Christopher
TTITLE1=Straight To The Top (Rhumba)
TTITLE2=Blow, Wind, Blow
TTITLE3=Temptation
TTITLE4=Innocent When You Dream (Bar Room)
TTITLE5=I'll Be Gone
TTITLE6=Yesterday Is Here
TTITLE7=Please Wake Me Up
TTITLE8=Frank's Theme
TTITLE9=More Than Rain
TTITLE10=Way Down In The Hole
TTITLE11=Straight To The Top (Vegas)
TTITLE12=I'll Take New York
TTITLE13=Telephone Call From Istanbul
TTITLE14=Cold Cold Ground
TTITLE15=Train Song
TTITLE16=Innocent When You Dream (78)
EXTD=Island Records 422-842357-2\nUn Operaci Romantico in Two Acts\nAc
EXTD=t 1:Tracks 1-9\nAct 2: Tracks 10-17
EXTT0=
EXTT1=
EXTT2=
EXTT3=
EXTT4=
EXTT5=
EXTT6=
EXTT7=
EXTT8=
EXTT9=
EXTT10=
EXTT11=
EXTT12=
EXTT13=
EXTT14=
EXTT15=
EXTT16=
PLAYORDER=
